<svg id="SvgjsSvg1006" width="1081" height="808" xmlns="http://www.w3.org/2000/svg" version="1.1" xmlns:xlink="http://www.w3.org/1999/xlink" xmlns:svgjs="http://svgjs.com/svgjs"><defs id="SvgjsDefs1007"><marker id="SvgjsMarker1024" markerWidth="16" markerHeight="12" refX="16" refY="6" viewBox="0 0 16 12" orient="auto" markerUnits="userSpaceOnUse" stroke-dasharray="0,0"><path id="SvgjsPath1025" d="M0,2 L14,6 L0,11 L0,2" fill="#323232" stroke="#323232" stroke-width="2"></path></marker><marker id="SvgjsMarker1034" markerWidth="16" markerHeight="12" refX="16" refY="6" viewBox="0 0 16 12" orient="auto" markerUnits="userSpaceOnUse" stroke-dasharray="0,0"><path id="SvgjsPath1035" d="M0,2 L14,6 L0,11 L0,2" fill="#323232" stroke="#323232" stroke-width="2"></path></marker><marker id="SvgjsMarker1048" markerWidth="16" markerHeight="12" refX="16" refY="6" viewBox="0 0 16 12" orient="auto" markerUnits="userSpaceOnUse" stroke-dasharray="0,0"><path id="SvgjsPath1049" d="M0,2 L14,6 L0,11 L0,2" fill="#323232" stroke="#323232" stroke-width="2"></path></marker><marker id="SvgjsMarker1064" markerWidth="16" markerHeight="12" refX="16" refY="6" viewBox="0 0 16 12" orient="auto" markerUnits="userSpaceOnUse" stroke-dasharray="0,0"><path id="SvgjsPath1065" d="M0,2 L14,6 L0,11 L0,2" fill="#323232" stroke="#323232" stroke-width="2"></path></marker><marker id="SvgjsMarker1068" markerWidth="16" markerHeight="12" refX="16" refY="6" viewBox="0 0 16 12" orient="auto" markerUnits="userSpaceOnUse" stroke-dasharray="0,0"><path id="SvgjsPath1069" d="M0,2 L14,6 L0,11 L0,2" fill="#323232" stroke="#323232" stroke-width="2"></path></marker><marker id="SvgjsMarker1072" markerWidth="16" markerHeight="12" refX="16" refY="6" viewBox="0 0 16 12" orient="auto" markerUnits="userSpaceOnUse" stroke-dasharray="0,0"><path id="SvgjsPath1073" d="M0,2 L14,6 L0,11 L0,2" fill="#323232" stroke="#323232" stroke-width="2"></path></marker><marker id="SvgjsMarker1086" markerWidth="16" markerHeight="12" refX="16" refY="6" viewBox="0 0 16 12" orient="auto" markerUnits="userSpaceOnUse" stroke-dasharray="0,0"><path id="SvgjsPath1087" d="M0,2 L14,6 L0,11 L0,2" fill="#323232" stroke="#323232" stroke-width="2"></path></marker><marker id="SvgjsMarker1100" markerWidth="16" markerHeight="12" refX="16" refY="6" viewBox="0 0 16 12" orient="auto" markerUnits="userSpaceOnUse" stroke-dasharray="0,0"><path id="SvgjsPath1101" d="M0,2 L14,6 L0,11 L0,2" fill="#323232" stroke="#323232" stroke-width="2"></path></marker><marker id="SvgjsMarker1110" markerWidth="16" markerHeight="12" refX="16" refY="6" viewBox="0 0 16 12" orient="auto" markerUnits="userSpaceOnUse" stroke-dasharray="0,0"><path id="SvgjsPath1111" d="M0,2 L14,6 L0,11 L0,2" fill="#323232" stroke="#323232" stroke-width="2"></path></marker><marker id="SvgjsMarker1120" markerWidth="16" markerHeight="12" refX="16" refY="6" viewBox="0 0 16 12" orient="auto" markerUnits="userSpaceOnUse" stroke-dasharray="0,0"><path id="SvgjsPath1121" d="M0,2 L14,6 L0,11 L0,2" fill="#323232" stroke="#323232" stroke-width="2"></path></marker><marker id="SvgjsMarker1136" markerWidth="16" markerHeight="12" refX="16" refY="6" viewBox="0 0 16 12" orient="auto" markerUnits="userSpaceOnUse" stroke-dasharray="0,0"><path id="SvgjsPath1137" d="M0,2 L14,6 L0,11 L0,2" fill="#323232" stroke="#323232" stroke-width="2"></path></marker><marker id="SvgjsMarker1150" markerWidth="16" markerHeight="12" refX="16" refY="6" viewBox="0 0 16 12" orient="auto" markerUnits="userSpaceOnUse" stroke-dasharray="0,0"><path id="SvgjsPath1151" d="M0,2 L14,6 L0,11 L0,2" fill="#323232" stroke="#323232" stroke-width="2"></path></marker><marker id="SvgjsMarker1160" markerWidth="16" markerHeight="12" refX="16" refY="6" viewBox="0 0 16 12" orient="auto" markerUnits="userSpaceOnUse" stroke-dasharray="0,0"><path id="SvgjsPath1161" d="M0,2 L14,6 L0,11 L0,2" fill="#323232" stroke="#323232" stroke-width="2"></path></marker><marker id="SvgjsMarker1168" markerWidth="16" markerHeight="12" refX="16" refY="6" viewBox="0 0 16 12" orient="auto" markerUnits="userSpaceOnUse" stroke-dasharray="0,0"><path id="SvgjsPath1169" d="M0,2 L14,6 L0,11 L0,2" fill="#323232" stroke="#323232" stroke-width="2"></path></marker></defs><g id="SvgjsG1008" transform="translate(830,117)"><path id="SvgjsPath1009" d="M 0 0L 226 0L 226 57L 0 57Z" stroke="rgba(50,50,50,1)" stroke-width="2" fill-opacity="1" fill="#ffffff"></path><g id="SvgjsG1010"><text id="SvgjsText1011" font-family="微软雅黑" text-anchor="middle" font-size="13px" width="206px" fill="#323232" font-weight="400" align="middle" anchor="middle" family="微软雅黑" size="13px" weight="400" font-style="" opacity="1" y="10.55" transform="rotate(0)"><tspan id="SvgjsTspan1012" dy="16" x="113"><tspan id="SvgjsTspan1013" style="text-decoration:;">Clean up the old one and Re-</tspan></tspan><tspan id="SvgjsTspan1014" dy="16" x="113"><tspan id="SvgjsTspan1015" style="text-decoration:;">generate the CA pair</tspan></tspan></text></g></g><g id="SvgjsG1016" transform="translate(127,25)"><path id="SvgjsPath1017" d="M 16.666666666666668 0L 83.33333333333333 0C 105.55555555555556 0 105.55555555555556 50 83.33333333333333 50L 16.666666666666668 50C -5.555555555555556 50 -5.555555555555556 0 16.666666666666668 0Z" stroke="rgba(50,50,50,1)" stroke-width="2" fill-opacity="1" fill="#ffffff"></path><g id="SvgjsG1018"><text id="SvgjsText1019" font-family="微软雅黑" text-anchor="middle" font-size="13px" width="80px" fill="#323232" font-weight="400" align="middle" anchor="middle" family="微软雅黑" size="13px" weight="400" font-style="" opacity="1" y="15.05" transform="rotate(0)"><tspan id="SvgjsTspan1020" dy="16" x="50"><tspan id="SvgjsTspan1021" style="text-decoration:;">Start</tspan></tspan></text></g></g><g id="SvgjsG1022"><path id="SvgjsPath1023" d="M177 75L177 95L177 95L177 115" stroke="#323232" stroke-width="2" fill="none" marker-end="url(#SvgjsMarker1024)"></path></g><g id="SvgjsG1026" transform="translate(25,115)"><path id="SvgjsPath1027" d="M 0 30.5L 152 0L 304 30.5L 152 61L 0 30.5Z" stroke="rgba(50,50,50,1)" stroke-width="2" fill-opacity="1" fill="#ffffff"></path><g id="SvgjsG1028"><text id="SvgjsText1029" font-family="微软雅黑" text-anchor="middle" font-size="13px" width="284px" fill="#323232" font-weight="400" align="middle" anchor="middle" family="微软雅黑" size="13px" weight="400" font-style="" opacity="1" y="20.55" transform="rotate(0)"><tspan id="SvgjsTspan1030" dy="16" x="152"><tspan id="SvgjsTspan1031" style="text-decoration:;">Whether there is CA pair existing</tspan></tspan></text></g></g><g id="SvgjsG1032"><path id="SvgjsPath1033" d="M329 145.5L366.5 145.5L366.5 145.5L404 145.5" stroke="#323232" stroke-width="2" fill="none" marker-end="url(#SvgjsMarker1034)"></path><rect id="SvgjsRect1036" width="21" height="16" x="356" y="137.5" fill="#ffffff"></rect><text id="SvgjsText1037" font-family="微软雅黑" text-anchor="middle" font-size="13px" width="21px" fill="#323232" font-weight="400" align="top" anchor="middle" family="微软雅黑" size="13px" weight="400" font-style="" opacity="1" y="135.55" transform="rotate(0)"><tspan id="SvgjsTspan1038" dy="16" x="366.5"><tspan id="SvgjsTspan1039" style="text-decoration:;">Yes</tspan></tspan></text></g><g id="SvgjsG1040" transform="translate(404,115)"><path id="SvgjsPath1041" d="M 0 30.5L 170.5 0L 341 30.5L 170.5 61L 0 30.5Z" stroke="rgba(50,50,50,1)" stroke-width="2" fill-opacity="1" fill="#ffffff"></path><g id="SvgjsG1042"><text id="SvgjsText1043" font-family="微软雅黑" text-anchor="middle" font-size="13px" width="321px" fill="#323232" font-weight="400" align="middle" anchor="middle" family="微软雅黑" size="13px" weight="400" font-style="" opacity="1" y="20.55" transform="rotate(0)"><tspan id="SvgjsTspan1044" dy="16" x="170.5"><tspan id="SvgjsTspan1045" style="text-decoration:;">Whether needs to re-generate the CA pair</tspan></tspan></text></g></g><g id="SvgjsG1046"><path id="SvgjsPath1047" d="M745 145.5L787.5 145.5L787.5 145.5L830 145.5" stroke="#323232" stroke-width="2" fill="none" marker-end="url(#SvgjsMarker1048)"></path><rect id="SvgjsRect1050" width="21" height="16" x="777" y="137.5" fill="#ffffff"></rect><text id="SvgjsText1051" font-family="微软雅黑" text-anchor="middle" font-size="13px" width="21px" fill="#323232" font-weight="400" align="top" anchor="middle" family="微软雅黑" size="13px" weight="400" font-style="" opacity="1" y="135.55" transform="rotate(0)"><tspan id="SvgjsTspan1052" dy="16" x="787.5"><tspan id="SvgjsTspan1053" style="text-decoration:;">Yes</tspan></tspan></text></g><g id="SvgjsG1054" transform="translate(25,240)"><path id="SvgjsPath1055" d="M 0 34.5L 152 0L 304 34.5L 152 69L 0 34.5Z" stroke="rgba(50,50,50,1)" stroke-width="2" fill-opacity="1" fill="#ffffff"></path><g id="SvgjsG1056"><text id="SvgjsText1057" font-family="微软雅黑" text-anchor="middle" font-size="12px" width="284px" fill="#323232" font-weight="400" align="middle" anchor="middle" family="微软雅黑" size="12px" weight="400" font-style="" opacity="1" y="17.7" transform="rotate(0)"><tspan id="SvgjsTspan1058" dy="15" x="152"><tspan id="SvgjsTspan1059" style="text-decoration:;">Whether needs to upload the tar to the blob </tspan></tspan><tspan id="SvgjsTspan1060" dy="15" x="152"><tspan id="SvgjsTspan1061" style="text-decoration:;">storage</tspan></tspan></text></g></g><g id="SvgjsG1062"><path id="SvgjsPath1063" d="M574.5 176L574.5 208L177 208L177 240" stroke="#323232" stroke-width="2" fill="none" marker-end="url(#SvgjsMarker1064)"></path></g><g id="SvgjsG1066"><path id="SvgjsPath1067" d="M943 174L943 207L177 207L177 240" stroke="#323232" stroke-width="2" fill="none" marker-end="url(#SvgjsMarker1068)"></path></g><g id="SvgjsG1070"><path id="SvgjsPath1071" d="M177 176L177 208L177 208L177 240" stroke="#323232" stroke-width="2" fill="none" marker-end="url(#SvgjsMarker1072)"></path><rect id="SvgjsRect1074" width="19" height="16" x="167.5" y="200" fill="#ffffff"></rect><text id="SvgjsText1075" font-family="微软雅黑" text-anchor="middle" font-size="13px" width="19px" fill="#323232" font-weight="400" align="top" anchor="middle" family="微软雅黑" size="13px" weight="400" font-style="" opacity="1" y="198.05" transform="rotate(0)"><tspan id="SvgjsTspan1076" dy="16" x="177"><tspan id="SvgjsTspan1077" style="text-decoration:;">No</tspan></tspan></text></g><g id="SvgjsG1078" transform="translate(411,250)"><path id="SvgjsPath1079" d="M 0 0L 327 0L 327 49L 0 49Z" stroke="rgba(50,50,50,1)" stroke-width="2" fill-opacity="1" fill="#ffffff"></path><g id="SvgjsG1080"><text id="SvgjsText1081" font-family="微软雅黑" text-anchor="middle" font-size="13px" width="307px" fill="#323232" font-weight="400" align="middle" anchor="middle" family="微软雅黑" size="13px" weight="400" font-style="" opacity="1" y="14.55" transform="rotate(0)"><tspan id="SvgjsTspan1082" dy="16" x="163.5"><tspan id="SvgjsTspan1083" style="text-decoration:;">Upload the tar to the blob storage</tspan></tspan></text></g></g><g id="SvgjsG1084"><path id="SvgjsPath1085" d="M329 274.5L370 274.5L370 274.5L411 274.5" stroke="#323232" stroke-width="2" fill="none" marker-end="url(#SvgjsMarker1086)"></path><rect id="SvgjsRect1088" width="21" height="16" x="359.5" y="266.5" fill="#ffffff"></rect><text id="SvgjsText1089" font-family="微软雅黑" text-anchor="middle" font-size="13px" width="21px" fill="#323232" font-weight="400" align="top" anchor="middle" family="微软雅黑" size="13px" weight="400" font-style="" opacity="1" y="264.55" transform="rotate(0)"><tspan id="SvgjsTspan1090" dy="16" x="370"><tspan id="SvgjsTspan1091" style="text-decoration:;">Yes</tspan></tspan></text></g><g id="SvgjsG1092" transform="translate(25,348)"><path id="SvgjsPath1093" d="M 0 0L 304 0L 304 57L 0 57Z" stroke="rgba(50,50,50,1)" stroke-width="2" fill-opacity="1" fill="#ffffff"></path><g id="SvgjsG1094"><text id="SvgjsText1095" font-family="微软雅黑" text-anchor="middle" font-size="13px" width="284px" fill="#323232" font-weight="400" align="middle" anchor="middle" family="微软雅黑" size="13px" weight="400" font-style="" opacity="1" y="18.55" transform="rotate(0)"><tspan id="SvgjsTspan1096" dy="16" x="152"><tspan id="SvgjsTspan1097" style="text-decoration:;">Input the token</tspan></tspan></text></g></g><g id="SvgjsG1098"><path id="SvgjsPath1099" d="M177 309L177 328.5L177 328.5L177 348" stroke="#323232" stroke-width="2" fill="none" marker-end="url(#SvgjsMarker1100)"></path></g><g id="SvgjsG1102" transform="translate(25,440)"><path id="SvgjsPath1103" d="M 0 0L 304 0L 304 57L 0 57Z" stroke="rgba(50,50,50,1)" stroke-width="2" fill-opacity="1" fill="#ffffff"></path><g id="SvgjsG1104"><text id="SvgjsText1105" font-family="微软雅黑" text-anchor="middle" font-size="13px" width="284px" fill="#323232" font-weight="400" align="middle" anchor="middle" family="微软雅黑" size="13px" weight="400" font-style="" opacity="1" y="18.55" transform="rotate(0)"><tspan id="SvgjsTspan1106" dy="16" x="152"><tspan id="SvgjsTspan1107" style="text-decoration:;">Input the apiserver fqdn</tspan></tspan></text></g></g><g id="SvgjsG1108"><path id="SvgjsPath1109" d="M177 405L177 422.5L177 422.5L177 440" stroke="#323232" stroke-width="2" fill="none" marker-end="url(#SvgjsMarker1110)"></path></g><g id="SvgjsG1112" transform="translate(25,528)"><path id="SvgjsPath1113" d="M 0 29.5L 152 0L 304 29.5L 152 59L 0 29.5Z" stroke="rgba(50,50,50,1)" stroke-width="2" fill-opacity="1" fill="#ffffff"></path><g id="SvgjsG1114"><text id="SvgjsText1115" font-family="微软雅黑" text-anchor="middle" font-size="13px" width="284px" fill="#323232" font-weight="400" align="middle" anchor="middle" family="微软雅黑" size="13px" weight="400" font-style="" opacity="1" y="19.55" transform="rotate(0)"><tspan id="SvgjsTspan1116" dy="16" x="152"><tspan id="SvgjsTspan1117" style="text-decoration:;">Whether needss to provision master/agent</tspan></tspan></text></g></g><g id="SvgjsG1118"><path id="SvgjsPath1119" d="M177 497L177 512.5L177 512.5L177 528" stroke="#323232" stroke-width="2" fill="none" marker-end="url(#SvgjsMarker1120)"></path></g><g id="SvgjsG1122" transform="translate(297,735)"><path id="SvgjsPath1123" d="M 0 0L 121 0L 121 48L 0 48Z" stroke="rgba(50,50,50,1)" stroke-width="2" fill-opacity="1" fill="#ffffff"></path><g id="SvgjsG1124"><text id="SvgjsText1125" font-family="微软雅黑" text-anchor="middle" font-size="13px" width="101px" fill="#323232" font-weight="400" align="middle" anchor="middle" family="微软雅黑" size="13px" weight="400" font-style="" opacity="1" y="14.05" transform="rotate(0)"><tspan id="SvgjsTspan1126" dy="16" x="60.5"><tspan id="SvgjsTspan1127" style="text-decoration:;">Non-1st Master</tspan></tspan></text></g></g><g id="SvgjsG1128" transform="translate(25,639)"><path id="SvgjsPath1129" d="M 0 0L 121 0L 121 48L 0 48Z" stroke="rgba(50,50,50,1)" stroke-width="2" fill-opacity="1" fill="#ffffff"></path><g id="SvgjsG1130"><text id="SvgjsText1131" font-family="微软雅黑" text-anchor="middle" font-size="13px" width="101px" fill="#323232" font-weight="400" align="middle" anchor="middle" family="微软雅黑" size="13px" weight="400" font-style="" opacity="1" y="14.05" transform="rotate(0)"><tspan id="SvgjsTspan1132" dy="16" x="60.5"><tspan id="SvgjsTspan1133" style="text-decoration:;">Agent</tspan></tspan></text></g></g><g id="SvgjsG1134"><path id="SvgjsPath1135" d="M177 587L177 613L85.5 613L85.5 639" stroke="#323232" stroke-width="2" fill="none" marker-end="url(#SvgjsMarker1136)"></path><rect id="SvgjsRect1138" width="38" height="16" x="112.25" y="605" fill="#ffffff"></rect><text id="SvgjsText1139" font-family="微软雅黑" text-anchor="middle" font-size="13px" width="38px" fill="#323232" font-weight="400" align="top" anchor="middle" family="微软雅黑" size="13px" weight="400" font-style="" opacity="1" y="603.05" transform="rotate(0)"><tspan id="SvgjsTspan1140" dy="16" x="131.25"><tspan id="SvgjsTspan1141" style="text-decoration:;">Agent</tspan></tspan></text></g><g id="SvgjsG1142" transform="translate(227,639)"><path id="SvgjsPath1143" d="M 0 35L 45 0L 90 35L 45 70L 0 35Z" stroke="rgba(50,50,50,1)" stroke-width="2" fill-opacity="1" fill="#ffffff"></path><g id="SvgjsG1144"><text id="SvgjsText1145" font-family="微软雅黑" text-anchor="middle" font-size="13px" width="70px" fill="#323232" font-weight="400" align="middle" anchor="middle" family="微软雅黑" size="13px" weight="400" font-style="" opacity="1" y="25.05" transform="rotate(0)"><tspan id="SvgjsTspan1146" dy="16" x="45"><tspan id="SvgjsTspan1147" style="text-decoration:;">Master</tspan></tspan></text></g></g><g id="SvgjsG1148"><path id="SvgjsPath1149" d="M177 587L177 613L272 613L272 639" stroke="#323232" stroke-width="2" fill="none" marker-end="url(#SvgjsMarker1150)"></path></g><g id="SvgjsG1152" transform="translate(120,735)"><path id="SvgjsPath1153" d="M 0 0L 121 0L 121 48L 0 48Z" stroke="rgba(50,50,50,1)" stroke-width="2" fill-opacity="1" fill="#ffffff"></path><g id="SvgjsG1154"><text id="SvgjsText1155" font-family="微软雅黑" text-anchor="middle" font-size="13px" width="101px" fill="#323232" font-weight="400" align="middle" anchor="middle" family="微软雅黑" size="13px" weight="400" font-style="" opacity="1" y="14.05" transform="rotate(0)"><tspan id="SvgjsTspan1156" dy="16" x="60.5"><tspan id="SvgjsTspan1157" style="text-decoration:;">Non-1st Master</tspan></tspan></text></g></g><g id="SvgjsG1158"><path id="SvgjsPath1159" d="M227 674L180.5 674L180.5 735" stroke="#323232" stroke-width="2" fill="none" marker-end="url(#SvgjsMarker1160)"></path><rect id="SvgjsRect1162" width="51" height="16" x="155" y="673.25" fill="#ffffff"></rect><text id="SvgjsText1163" font-family="微软雅黑" text-anchor="middle" font-size="13px" width="51px" fill="#323232" font-weight="400" align="top" anchor="middle" family="微软雅黑" size="13px" weight="400" font-style="" opacity="1" y="671.3" transform="rotate(0)"><tspan id="SvgjsTspan1164" dy="16" x="180.5"><tspan id="SvgjsTspan1165" style="text-decoration:;">Non-1st</tspan></tspan></text></g><g id="SvgjsG1166"><path id="SvgjsPath1167" d="M317 674L357.5 674L357.5 735" stroke="#323232" stroke-width="2" fill="none" marker-end="url(#SvgjsMarker1168)"></path><rect id="SvgjsRect1170" width="19" height="16" x="348" y="676.2499999999999" fill="#ffffff"></rect><text id="SvgjsText1171" font-family="微软雅黑" text-anchor="middle" font-size="13px" width="19px" fill="#323232" font-weight="400" align="top" anchor="middle" family="微软雅黑" size="13px" weight="400" font-style="" opacity="1" y="674.2999999999998" transform="rotate(0)"><tspan id="SvgjsTspan1172" dy="16" x="357.5"><tspan id="SvgjsTspan1173" style="text-decoration:;">1st</tspan></tspan></text></g></svg>