<svg id="SvgjsSvg1519" width="1081" height="912" xmlns="http://www.w3.org/2000/svg" version="1.1" xmlns:xlink="http://www.w3.org/1999/xlink" xmlns:svgjs="http://svgjs.com/svgjs"><defs id="SvgjsDefs1520"><marker id="SvgjsMarker1537" markerWidth="16" markerHeight="12" refX="16" refY="6" viewBox="0 0 16 12" orient="auto" markerUnits="userSpaceOnUse" stroke-dasharray="0,0"><path id="SvgjsPath1538" d="M0,2 L14,6 L0,11 L0,2" fill="#323232" stroke="#323232" stroke-width="2"></path></marker><marker id="SvgjsMarker1547" markerWidth="16" markerHeight="12" refX="16" refY="6" viewBox="0 0 16 12" orient="auto" markerUnits="userSpaceOnUse" stroke-dasharray="0,0"><path id="SvgjsPath1548" d="M0,2 L14,6 L0,11 L0,2" fill="#323232" stroke="#323232" stroke-width="2"></path></marker><marker id="SvgjsMarker1561" markerWidth="16" markerHeight="12" refX="16" refY="6" viewBox="0 0 16 12" orient="auto" markerUnits="userSpaceOnUse" stroke-dasharray="0,0"><path id="SvgjsPath1562" d="M0,2 L14,6 L0,11 L0,2" fill="#323232" stroke="#323232" stroke-width="2"></path></marker><marker id="SvgjsMarker1577" markerWidth="16" markerHeight="12" refX="16" refY="6" viewBox="0 0 16 12" orient="auto" markerUnits="userSpaceOnUse" stroke-dasharray="0,0"><path id="SvgjsPath1578" d="M0,2 L14,6 L0,11 L0,2" fill="#323232" stroke="#323232" stroke-width="2"></path></marker><marker id="SvgjsMarker1581" markerWidth="16" markerHeight="12" refX="16" refY="6" viewBox="0 0 16 12" orient="auto" markerUnits="userSpaceOnUse" stroke-dasharray="0,0"><path id="SvgjsPath1582" d="M0,2 L14,6 L0,11 L0,2" fill="#323232" stroke="#323232" stroke-width="2"></path></marker><marker id="SvgjsMarker1585" markerWidth="16" markerHeight="12" refX="16" refY="6" viewBox="0 0 16 12" orient="auto" markerUnits="userSpaceOnUse" stroke-dasharray="0,0"><path id="SvgjsPath1586" d="M0,2 L14,6 L0,11 L0,2" fill="#323232" stroke="#323232" stroke-width="2"></path></marker><marker id="SvgjsMarker1599" markerWidth="16" markerHeight="12" refX="16" refY="6" viewBox="0 0 16 12" orient="auto" markerUnits="userSpaceOnUse" stroke-dasharray="0,0"><path id="SvgjsPath1600" d="M0,2 L14,6 L0,11 L0,2" fill="#323232" stroke="#323232" stroke-width="2"></path></marker><marker id="SvgjsMarker1613" markerWidth="16" markerHeight="12" refX="16" refY="6" viewBox="0 0 16 12" orient="auto" markerUnits="userSpaceOnUse" stroke-dasharray="0,0"><path id="SvgjsPath1614" d="M0,2 L14,6 L0,11 L0,2" fill="#323232" stroke="#323232" stroke-width="2"></path></marker><marker id="SvgjsMarker1623" markerWidth="16" markerHeight="12" refX="16" refY="6" viewBox="0 0 16 12" orient="auto" markerUnits="userSpaceOnUse" stroke-dasharray="0,0"><path id="SvgjsPath1624" d="M0,2 L14,6 L0,11 L0,2" fill="#323232" stroke="#323232" stroke-width="2"></path></marker><marker id="SvgjsMarker1633" markerWidth="16" markerHeight="12" refX="16" refY="6" viewBox="0 0 16 12" orient="auto" markerUnits="userSpaceOnUse" stroke-dasharray="0,0"><path id="SvgjsPath1634" d="M0,2 L14,6 L0,11 L0,2" fill="#323232" stroke="#323232" stroke-width="2"></path></marker><marker id="SvgjsMarker1649" markerWidth="16" markerHeight="12" refX="16" refY="6" viewBox="0 0 16 12" orient="auto" markerUnits="userSpaceOnUse" stroke-dasharray="0,0"><path id="SvgjsPath1650" d="M0,2 L14,6 L0,11 L0,2" fill="#323232" stroke="#323232" stroke-width="2"></path></marker><marker id="SvgjsMarker1663" markerWidth="16" markerHeight="12" refX="16" refY="6" viewBox="0 0 16 12" orient="auto" markerUnits="userSpaceOnUse" stroke-dasharray="0,0"><path id="SvgjsPath1664" d="M0,2 L14,6 L0,11 L0,2" fill="#323232" stroke="#323232" stroke-width="2"></path></marker><marker id="SvgjsMarker1673" markerWidth="16" markerHeight="12" refX="16" refY="6" viewBox="0 0 16 12" orient="auto" markerUnits="userSpaceOnUse" stroke-dasharray="0,0"><path id="SvgjsPath1674" d="M0,2 L14,6 L0,11 L0,2" fill="#323232" stroke="#323232" stroke-width="2"></path></marker><marker id="SvgjsMarker1681" markerWidth="16" markerHeight="12" refX="16" refY="6" viewBox="0 0 16 12" orient="auto" markerUnits="userSpaceOnUse" stroke-dasharray="0,0"><path id="SvgjsPath1682" d="M0,2 L14,6 L0,11 L0,2" fill="#323232" stroke="#323232" stroke-width="2"></path></marker><marker id="SvgjsMarker1689" markerWidth="16" markerHeight="12" refX="16" refY="6" viewBox="0 0 16 12" orient="auto" markerUnits="userSpaceOnUse" stroke-dasharray="0,0"><path id="SvgjsPath1690" d="M0,2 L14,6 L0,11 L0,2" fill="#323232" stroke="#323232" stroke-width="2"></path></marker><marker id="SvgjsMarker1699" markerWidth="16" markerHeight="12" refX="16" refY="6" viewBox="0 0 16 12" orient="auto" markerUnits="userSpaceOnUse" stroke-dasharray="0,0"><path id="SvgjsPath1700" d="M0,2 L14,6 L0,11 L0,2" fill="#323232" stroke="#323232" stroke-width="2"></path></marker><marker id="SvgjsMarker1703" markerWidth="16" markerHeight="12" refX="16" refY="6" viewBox="0 0 16 12" orient="auto" markerUnits="userSpaceOnUse" stroke-dasharray="0,0"><path id="SvgjsPath1704" d="M0,2 L14,6 L0,11 L0,2" fill="#323232" stroke="#323232" stroke-width="2"></path></marker><marker id="SvgjsMarker1707" markerWidth="16" markerHeight="12" refX="16" refY="6" viewBox="0 0 16 12" orient="auto" markerUnits="userSpaceOnUse" stroke-dasharray="0,0"><path id="SvgjsPath1708" d="M0,2 L14,6 L0,11 L0,2" fill="#323232" stroke="#323232" stroke-width="2"></path></marker></defs><g id="SvgjsG1521" transform="translate(830,117)"><path id="SvgjsPath1522" d="M 0 0L 226 0L 226 57L 0 57Z" stroke="rgba(50,50,50,1)" stroke-width="2" fill-opacity="1" fill="#ffffff"></path><g id="SvgjsG1523"><text id="SvgjsText1524" font-family="微软雅黑" text-anchor="middle" font-size="13px" width="206px" fill="#323232" font-weight="400" align="middle" anchor="middle" family="微软雅黑" size="13px" weight="400" font-style="" opacity="1" y="10.55" transform="rotate(0)"><tspan id="SvgjsTspan1525" dy="16" x="113"><tspan id="SvgjsTspan1526" style="text-decoration:;">Clean up the old one and Re-</tspan></tspan><tspan id="SvgjsTspan1527" dy="16" x="113"><tspan id="SvgjsTspan1528" style="text-decoration:;">generate the CA pair</tspan></tspan></text></g></g><g id="SvgjsG1529" transform="translate(127,25)"><path id="SvgjsPath1530" d="M 16.666666666666668 0L 83.33333333333333 0C 105.55555555555556 0 105.55555555555556 50 83.33333333333333 50L 16.666666666666668 50C -5.555555555555556 50 -5.555555555555556 0 16.666666666666668 0Z" stroke="rgba(50,50,50,1)" stroke-width="2" fill-opacity="1" fill="#ffffff"></path><g id="SvgjsG1531"><text id="SvgjsText1532" font-family="微软雅黑" text-anchor="middle" font-size="13px" width="80px" fill="#323232" font-weight="400" align="middle" anchor="middle" family="微软雅黑" size="13px" weight="400" font-style="" opacity="1" y="15.05" transform="rotate(0)"><tspan id="SvgjsTspan1533" dy="16" x="50"><tspan id="SvgjsTspan1534" style="text-decoration:;">Start</tspan></tspan></text></g></g><g id="SvgjsG1535"><path id="SvgjsPath1536" d="M177 75L177 95L177 95L177 115" stroke="#323232" stroke-width="2" fill="none" marker-end="url(#SvgjsMarker1537)"></path></g><g id="SvgjsG1539" transform="translate(25,115)"><path id="SvgjsPath1540" d="M 0 30.5L 152 0L 304 30.5L 152 61L 0 30.5Z" stroke="rgba(50,50,50,1)" stroke-width="2" fill-opacity="1" fill="#ffffff"></path><g id="SvgjsG1541"><text id="SvgjsText1542" font-family="微软雅黑" text-anchor="middle" font-size="13px" width="284px" fill="#323232" font-weight="400" align="middle" anchor="middle" family="微软雅黑" size="13px" weight="400" font-style="" opacity="1" y="20.55" transform="rotate(0)"><tspan id="SvgjsTspan1543" dy="16" x="152"><tspan id="SvgjsTspan1544" style="text-decoration:;">Whether there is CA pair existing</tspan></tspan></text></g></g><g id="SvgjsG1545"><path id="SvgjsPath1546" d="M329 145.5L366.5 145.5L366.5 145.5L404 145.5" stroke="#323232" stroke-width="2" fill="none" marker-end="url(#SvgjsMarker1547)"></path><rect id="SvgjsRect1549" width="21" height="16" x="356" y="137.5" fill="#ffffff"></rect><text id="SvgjsText1550" font-family="微软雅黑" text-anchor="middle" font-size="13px" width="21px" fill="#323232" font-weight="400" align="top" anchor="middle" family="微软雅黑" size="13px" weight="400" font-style="" opacity="1" y="135.55" transform="rotate(0)"><tspan id="SvgjsTspan1551" dy="16" x="366.5"><tspan id="SvgjsTspan1552" style="text-decoration:;">Yes</tspan></tspan></text></g><g id="SvgjsG1553" transform="translate(404,115)"><path id="SvgjsPath1554" d="M 0 30.5L 170.5 0L 341 30.5L 170.5 61L 0 30.5Z" stroke="rgba(50,50,50,1)" stroke-width="2" fill-opacity="1" fill="#ffffff"></path><g id="SvgjsG1555"><text id="SvgjsText1556" font-family="微软雅黑" text-anchor="middle" font-size="13px" width="321px" fill="#323232" font-weight="400" align="middle" anchor="middle" family="微软雅黑" size="13px" weight="400" font-style="" opacity="1" y="20.55" transform="rotate(0)"><tspan id="SvgjsTspan1557" dy="16" x="170.5"><tspan id="SvgjsTspan1558" style="text-decoration:;">Whether needs to re-generate the CA pair</tspan></tspan></text></g></g><g id="SvgjsG1559"><path id="SvgjsPath1560" d="M745 145.5L787.5 145.5L787.5 145.5L830 145.5" stroke="#323232" stroke-width="2" fill="none" marker-end="url(#SvgjsMarker1561)"></path><rect id="SvgjsRect1563" width="21" height="16" x="777" y="137.5" fill="#ffffff"></rect><text id="SvgjsText1564" font-family="微软雅黑" text-anchor="middle" font-size="13px" width="21px" fill="#323232" font-weight="400" align="top" anchor="middle" family="微软雅黑" size="13px" weight="400" font-style="" opacity="1" y="135.55" transform="rotate(0)"><tspan id="SvgjsTspan1565" dy="16" x="787.5"><tspan id="SvgjsTspan1566" style="text-decoration:;">Yes</tspan></tspan></text></g><g id="SvgjsG1567" transform="translate(25,240)"><path id="SvgjsPath1568" d="M 0 34.5L 152 0L 304 34.5L 152 69L 0 34.5Z" stroke="rgba(50,50,50,1)" stroke-width="2" fill-opacity="1" fill="#ffffff"></path><g id="SvgjsG1569"><text id="SvgjsText1570" font-family="微软雅黑" text-anchor="middle" font-size="12px" width="284px" fill="#323232" font-weight="400" align="middle" anchor="middle" family="微软雅黑" size="12px" weight="400" font-style="" opacity="1" y="17.7" transform="rotate(0)"><tspan id="SvgjsTspan1571" dy="15" x="152"><tspan id="SvgjsTspan1572" style="text-decoration:;">Whether needs to upload the tar to the blob </tspan></tspan><tspan id="SvgjsTspan1573" dy="15" x="152"><tspan id="SvgjsTspan1574" style="text-decoration:;">storage</tspan></tspan></text></g></g><g id="SvgjsG1575"><path id="SvgjsPath1576" d="M574.5 176L574.5 208L177 208L177 240" stroke="#323232" stroke-width="2" fill="none" marker-end="url(#SvgjsMarker1577)"></path></g><g id="SvgjsG1579"><path id="SvgjsPath1580" d="M943 174L943 207L177 207L177 240" stroke="#323232" stroke-width="2" fill="none" marker-end="url(#SvgjsMarker1581)"></path></g><g id="SvgjsG1583"><path id="SvgjsPath1584" d="M177 176L177 208L177 208L177 240" stroke="#323232" stroke-width="2" fill="none" marker-end="url(#SvgjsMarker1585)"></path><rect id="SvgjsRect1587" width="19" height="16" x="167.5" y="200" fill="#ffffff"></rect><text id="SvgjsText1588" font-family="微软雅黑" text-anchor="middle" font-size="13px" width="19px" fill="#323232" font-weight="400" align="top" anchor="middle" family="微软雅黑" size="13px" weight="400" font-style="" opacity="1" y="198.05" transform="rotate(0)"><tspan id="SvgjsTspan1589" dy="16" x="177"><tspan id="SvgjsTspan1590" style="text-decoration:;">No</tspan></tspan></text></g><g id="SvgjsG1591" transform="translate(411,250)"><path id="SvgjsPath1592" d="M 0 0L 327 0L 327 49L 0 49Z" stroke="rgba(50,50,50,1)" stroke-width="2" fill-opacity="1" fill="#ffffff"></path><g id="SvgjsG1593"><text id="SvgjsText1594" font-family="微软雅黑" text-anchor="middle" font-size="13px" width="307px" fill="#323232" font-weight="400" align="middle" anchor="middle" family="微软雅黑" size="13px" weight="400" font-style="" opacity="1" y="14.55" transform="rotate(0)"><tspan id="SvgjsTspan1595" dy="16" x="163.5"><tspan id="SvgjsTspan1596" style="text-decoration:;">Upload the tar to the blob storage</tspan></tspan></text></g></g><g id="SvgjsG1597"><path id="SvgjsPath1598" d="M329 274.5L370 274.5L370 274.5L411 274.5" stroke="#323232" stroke-width="2" fill="none" marker-end="url(#SvgjsMarker1599)"></path><rect id="SvgjsRect1601" width="21" height="16" x="359.5" y="266.5" fill="#ffffff"></rect><text id="SvgjsText1602" font-family="微软雅黑" text-anchor="middle" font-size="13px" width="21px" fill="#323232" font-weight="400" align="top" anchor="middle" family="微软雅黑" size="13px" weight="400" font-style="" opacity="1" y="264.55" transform="rotate(0)"><tspan id="SvgjsTspan1603" dy="16" x="370"><tspan id="SvgjsTspan1604" style="text-decoration:;">Yes</tspan></tspan></text></g><g id="SvgjsG1605" transform="translate(25,348)"><path id="SvgjsPath1606" d="M 0 0L 304 0L 304 57L 0 57Z" stroke="rgba(50,50,50,1)" stroke-width="2" fill-opacity="1" fill="#ffffff"></path><g id="SvgjsG1607"><text id="SvgjsText1608" font-family="微软雅黑" text-anchor="middle" font-size="13px" width="284px" fill="#323232" font-weight="400" align="middle" anchor="middle" family="微软雅黑" size="13px" weight="400" font-style="" opacity="1" y="18.55" transform="rotate(0)"><tspan id="SvgjsTspan1609" dy="16" x="152"><tspan id="SvgjsTspan1610" style="text-decoration:;">Input the token</tspan></tspan></text></g></g><g id="SvgjsG1611"><path id="SvgjsPath1612" d="M177 309L177 328.5L177 328.5L177 348" stroke="#323232" stroke-width="2" fill="none" marker-end="url(#SvgjsMarker1613)"></path></g><g id="SvgjsG1615" transform="translate(25,440)"><path id="SvgjsPath1616" d="M 0 0L 304 0L 304 57L 0 57Z" stroke="rgba(50,50,50,1)" stroke-width="2" fill-opacity="1" fill="#ffffff"></path><g id="SvgjsG1617"><text id="SvgjsText1618" font-family="微软雅黑" text-anchor="middle" font-size="13px" width="284px" fill="#323232" font-weight="400" align="middle" anchor="middle" family="微软雅黑" size="13px" weight="400" font-style="" opacity="1" y="18.55" transform="rotate(0)"><tspan id="SvgjsTspan1619" dy="16" x="152"><tspan id="SvgjsTspan1620" style="text-decoration:;">Input the apiserver fqdn</tspan></tspan></text></g></g><g id="SvgjsG1621"><path id="SvgjsPath1622" d="M177 405L177 422.5L177 422.5L177 440" stroke="#323232" stroke-width="2" fill="none" marker-end="url(#SvgjsMarker1623)"></path></g><g id="SvgjsG1625" transform="translate(25,528)"><path id="SvgjsPath1626" d="M 0 29.5L 152 0L 304 29.5L 152 59L 0 29.5Z" stroke="rgba(50,50,50,1)" stroke-width="2" fill-opacity="1" fill="#ffffff"></path><g id="SvgjsG1627"><text id="SvgjsText1628" font-family="微软雅黑" text-anchor="middle" font-size="13px" width="284px" fill="#323232" font-weight="400" align="middle" anchor="middle" family="微软雅黑" size="13px" weight="400" font-style="" opacity="1" y="19.55" transform="rotate(0)"><tspan id="SvgjsTspan1629" dy="16" x="152"><tspan id="SvgjsTspan1630" style="text-decoration:;">Whether needss to provision master/agent</tspan></tspan></text></g></g><g id="SvgjsG1631"><path id="SvgjsPath1632" d="M177 497L177 512.5L177 512.5L177 528" stroke="#323232" stroke-width="2" fill="none" marker-end="url(#SvgjsMarker1633)"></path></g><g id="SvgjsG1635" transform="translate(297,735)"><path id="SvgjsPath1636" d="M 0 0L 121 0L 121 48L 0 48Z" stroke="rgba(50,50,50,1)" stroke-width="2" fill-opacity="1" fill="#ffffff"></path><g id="SvgjsG1637"><text id="SvgjsText1638" font-family="微软雅黑" text-anchor="middle" font-size="13px" width="101px" fill="#323232" font-weight="400" align="middle" anchor="middle" family="微软雅黑" size="13px" weight="400" font-style="" opacity="1" y="14.05" transform="rotate(0)"><tspan id="SvgjsTspan1639" dy="16" x="60.5"><tspan id="SvgjsTspan1640" style="text-decoration:;">Non-1st Master</tspan></tspan></text></g></g><g id="SvgjsG1641" transform="translate(25,639)"><path id="SvgjsPath1642" d="M 0 0L 121 0L 121 48L 0 48Z" stroke="rgba(50,50,50,1)" stroke-width="2" fill-opacity="1" fill="#ffffff"></path><g id="SvgjsG1643"><text id="SvgjsText1644" font-family="微软雅黑" text-anchor="middle" font-size="13px" width="101px" fill="#323232" font-weight="400" align="middle" anchor="middle" family="微软雅黑" size="13px" weight="400" font-style="" opacity="1" y="14.05" transform="rotate(0)"><tspan id="SvgjsTspan1645" dy="16" x="60.5"><tspan id="SvgjsTspan1646" style="text-decoration:;">Agent</tspan></tspan></text></g></g><g id="SvgjsG1647"><path id="SvgjsPath1648" d="M177 587L177 613L85.5 613L85.5 639" stroke="#323232" stroke-width="2" fill="none" marker-end="url(#SvgjsMarker1649)"></path><rect id="SvgjsRect1651" width="38" height="16" x="112.25" y="605" fill="#ffffff"></rect><text id="SvgjsText1652" font-family="微软雅黑" text-anchor="middle" font-size="13px" width="38px" fill="#323232" font-weight="400" align="top" anchor="middle" family="微软雅黑" size="13px" weight="400" font-style="" opacity="1" y="603.05" transform="rotate(0)"><tspan id="SvgjsTspan1653" dy="16" x="131.25"><tspan id="SvgjsTspan1654" style="text-decoration:;">Agent</tspan></tspan></text></g><g id="SvgjsG1655" transform="translate(227,639)"><path id="SvgjsPath1656" d="M 0 35L 45 0L 90 35L 45 70L 0 35Z" stroke="rgba(50,50,50,1)" stroke-width="2" fill-opacity="1" fill="#ffffff"></path><g id="SvgjsG1657"><text id="SvgjsText1658" font-family="微软雅黑" text-anchor="middle" font-size="13px" width="70px" fill="#323232" font-weight="400" align="middle" anchor="middle" family="微软雅黑" size="13px" weight="400" font-style="" opacity="1" y="25.05" transform="rotate(0)"><tspan id="SvgjsTspan1659" dy="16" x="45"><tspan id="SvgjsTspan1660" style="text-decoration:;">Master</tspan></tspan></text></g></g><g id="SvgjsG1661"><path id="SvgjsPath1662" d="M177 587L177 613L272 613L272 639" stroke="#323232" stroke-width="2" fill="none" marker-end="url(#SvgjsMarker1663)"></path></g><g id="SvgjsG1665" transform="translate(120,735)"><path id="SvgjsPath1666" d="M 0 0L 121 0L 121 48L 0 48Z" stroke="rgba(50,50,50,1)" stroke-width="2" fill-opacity="1" fill="#ffffff"></path><g id="SvgjsG1667"><text id="SvgjsText1668" font-family="微软雅黑" text-anchor="middle" font-size="13px" width="101px" fill="#323232" font-weight="400" align="middle" anchor="middle" family="微软雅黑" size="13px" weight="400" font-style="" opacity="1" y="14.05" transform="rotate(0)"><tspan id="SvgjsTspan1669" dy="16" x="60.5"><tspan id="SvgjsTspan1670" style="text-decoration:;">Non-1st Master</tspan></tspan></text></g></g><g id="SvgjsG1671"><path id="SvgjsPath1672" d="M227 674L180.5 674L180.5 735" stroke="#323232" stroke-width="2" fill="none" marker-end="url(#SvgjsMarker1673)"></path><rect id="SvgjsRect1675" width="51" height="16" x="155" y="673.25" fill="#ffffff"></rect><text id="SvgjsText1676" font-family="微软雅黑" text-anchor="middle" font-size="13px" width="51px" fill="#323232" font-weight="400" align="top" anchor="middle" family="微软雅黑" size="13px" weight="400" font-style="" opacity="1" y="671.3" transform="rotate(0)"><tspan id="SvgjsTspan1677" dy="16" x="180.5"><tspan id="SvgjsTspan1678" style="text-decoration:;">Non-1st</tspan></tspan></text></g><g id="SvgjsG1679"><path id="SvgjsPath1680" d="M317 674L357.5 674L357.5 735" stroke="#323232" stroke-width="2" fill="none" marker-end="url(#SvgjsMarker1681)"></path><rect id="SvgjsRect1683" width="19" height="16" x="348" y="676.2499999999999" fill="#ffffff"></rect><text id="SvgjsText1684" font-family="微软雅黑" text-anchor="middle" font-size="13px" width="19px" fill="#323232" font-weight="400" align="top" anchor="middle" family="微软雅黑" size="13px" weight="400" font-style="" opacity="1" y="674.2999999999998" transform="rotate(0)"><tspan id="SvgjsTspan1685" dy="16" x="357.5"><tspan id="SvgjsTspan1686" style="text-decoration:;">1st</tspan></tspan></text></g><g id="SvgjsG1687"><path id="SvgjsPath1688" d="M574.5 299L574.5 323.5L177 323.5L177 348" stroke="#323232" stroke-width="2" fill="none" marker-end="url(#SvgjsMarker1689)"></path></g><g id="SvgjsG1691" transform="translate(130.5,837)"><path id="SvgjsPath1692" d="M 16.666666666666668 0L 83.33333333333333 0C 105.55555555555556 0 105.55555555555556 50 83.33333333333333 50L 16.666666666666668 50C -5.555555555555556 50 -5.555555555555556 0 16.666666666666668 0Z" stroke="rgba(50,50,50,1)" stroke-width="2" fill-opacity="1" fill="#ffffff"></path><g id="SvgjsG1693"><text id="SvgjsText1694" font-family="微软雅黑" text-anchor="middle" font-size="13px" width="80px" fill="#323232" font-weight="400" align="middle" anchor="middle" family="微软雅黑" size="13px" weight="400" font-style="" opacity="1" y="15.05" transform="rotate(0)"><tspan id="SvgjsTspan1695" dy="16" x="50"><tspan id="SvgjsTspan1696" style="text-decoration:;">End</tspan></tspan></text></g></g><g id="SvgjsG1697"><path id="SvgjsPath1698" d="M85.5 687L85.5 862L130.5 862" stroke="#323232" stroke-width="2" fill="none" marker-end="url(#SvgjsMarker1699)"></path></g><g id="SvgjsG1701"><path id="SvgjsPath1702" d="M180.5 783L180.5 810L180.5 810L180.5 837" stroke="#323232" stroke-width="2" fill="none" marker-end="url(#SvgjsMarker1703)"></path></g><g id="SvgjsG1705"><path id="SvgjsPath1706" d="M357.5 783L357.5 810L180.5 810L180.5 837" stroke="#323232" stroke-width="2" fill="none" marker-end="url(#SvgjsMarker1707)"></path></g></svg>