<svg id="SvgjsSvg2359" width="1081" height="944" xmlns="http://www.w3.org/2000/svg" version="1.1" xmlns:xlink="http://www.w3.org/1999/xlink" xmlns:svgjs="http://svgjs.com/svgjs"><defs id="SvgjsDefs2360"><marker id="SvgjsMarker2377" markerWidth="16" markerHeight="12" refX="16" refY="6" viewBox="0 0 16 12" orient="auto" markerUnits="userSpaceOnUse" stroke-dasharray="0,0"><path id="SvgjsPath2378" d="M0,2 L14,6 L0,11 L0,2" fill="#323232" stroke="#323232" stroke-width="2"></path></marker><marker id="SvgjsMarker2387" markerWidth="16" markerHeight="12" refX="16" refY="6" viewBox="0 0 16 12" orient="auto" markerUnits="userSpaceOnUse" stroke-dasharray="0,0"><path id="SvgjsPath2388" d="M0,2 L14,6 L0,11 L0,2" fill="#323232" stroke="#323232" stroke-width="2"></path></marker><marker id="SvgjsMarker2401" markerWidth="16" markerHeight="12" refX="16" refY="6" viewBox="0 0 16 12" orient="auto" markerUnits="userSpaceOnUse" stroke-dasharray="0,0"><path id="SvgjsPath2402" d="M0,2 L14,6 L0,11 L0,2" fill="#323232" stroke="#323232" stroke-width="2"></path></marker><marker id="SvgjsMarker2417" markerWidth="16" markerHeight="12" refX="16" refY="6" viewBox="0 0 16 12" orient="auto" markerUnits="userSpaceOnUse" stroke-dasharray="0,0"><path id="SvgjsPath2418" d="M0,2 L14,6 L0,11 L0,2" fill="#323232" stroke="#323232" stroke-width="2"></path></marker><marker id="SvgjsMarker2421" markerWidth="16" markerHeight="12" refX="16" refY="6" viewBox="0 0 16 12" orient="auto" markerUnits="userSpaceOnUse" stroke-dasharray="0,0"><path id="SvgjsPath2422" d="M0,2 L14,6 L0,11 L0,2" fill="#323232" stroke="#323232" stroke-width="2"></path></marker><marker id="SvgjsMarker2425" markerWidth="16" markerHeight="12" refX="16" refY="6" viewBox="0 0 16 12" orient="auto" markerUnits="userSpaceOnUse" stroke-dasharray="0,0"><path id="SvgjsPath2426" d="M0,2 L14,6 L0,11 L0,2" fill="#323232" stroke="#323232" stroke-width="2"></path></marker><marker id="SvgjsMarker2439" markerWidth="16" markerHeight="12" refX="16" refY="6" viewBox="0 0 16 12" orient="auto" markerUnits="userSpaceOnUse" stroke-dasharray="0,0"><path id="SvgjsPath2440" d="M0,2 L14,6 L0,11 L0,2" fill="#323232" stroke="#323232" stroke-width="2"></path></marker><marker id="SvgjsMarker2453" markerWidth="16" markerHeight="12" refX="16" refY="6" viewBox="0 0 16 12" orient="auto" markerUnits="userSpaceOnUse" stroke-dasharray="0,0"><path id="SvgjsPath2454" d="M0,2 L14,6 L0,11 L0,2" fill="#323232" stroke="#323232" stroke-width="2"></path></marker><marker id="SvgjsMarker2463" markerWidth="16" markerHeight="12" refX="16" refY="6" viewBox="0 0 16 12" orient="auto" markerUnits="userSpaceOnUse" stroke-dasharray="0,0"><path id="SvgjsPath2464" d="M0,2 L14,6 L0,11 L0,2" fill="#323232" stroke="#323232" stroke-width="2"></path></marker><marker id="SvgjsMarker2473" markerWidth="16" markerHeight="12" refX="16" refY="6" viewBox="0 0 16 12" orient="auto" markerUnits="userSpaceOnUse" stroke-dasharray="0,0"><path id="SvgjsPath2474" d="M0,2 L14,6 L0,11 L0,2" fill="#323232" stroke="#323232" stroke-width="2"></path></marker><marker id="SvgjsMarker2483" markerWidth="16" markerHeight="12" refX="16" refY="6" viewBox="0 0 16 12" orient="auto" markerUnits="userSpaceOnUse" stroke-dasharray="0,0"><path id="SvgjsPath2484" d="M0,2 L14,6 L0,11 L0,2" fill="#323232" stroke="#323232" stroke-width="2"></path></marker><marker id="SvgjsMarker2497" markerWidth="16" markerHeight="12" refX="16" refY="6" viewBox="0 0 16 12" orient="auto" markerUnits="userSpaceOnUse" stroke-dasharray="0,0"><path id="SvgjsPath2498" d="M0,2 L14,6 L0,11 L0,2" fill="#323232" stroke="#323232" stroke-width="2"></path></marker><marker id="SvgjsMarker2505" markerWidth="16" markerHeight="12" refX="16" refY="6" viewBox="0 0 16 12" orient="auto" markerUnits="userSpaceOnUse" stroke-dasharray="0,0"><path id="SvgjsPath2506" d="M0,2 L14,6 L0,11 L0,2" fill="#323232" stroke="#323232" stroke-width="2"></path></marker><marker id="SvgjsMarker2513" markerWidth="16" markerHeight="12" refX="16" refY="6" viewBox="0 0 16 12" orient="auto" markerUnits="userSpaceOnUse" stroke-dasharray="0,0"><path id="SvgjsPath2514" d="M0,2 L14,6 L0,11 L0,2" fill="#323232" stroke="#323232" stroke-width="2"></path></marker><marker id="SvgjsMarker2521" markerWidth="16" markerHeight="12" refX="16" refY="6" viewBox="0 0 16 12" orient="auto" markerUnits="userSpaceOnUse" stroke-dasharray="0,0"><path id="SvgjsPath2522" d="M0,2 L14,6 L0,11 L0,2" fill="#323232" stroke="#323232" stroke-width="2"></path></marker><marker id="SvgjsMarker2541" markerWidth="16" markerHeight="12" refX="16" refY="6" viewBox="0 0 16 12" orient="auto" markerUnits="userSpaceOnUse" stroke-dasharray="0,0"><path id="SvgjsPath2542" d="M0,2 L14,6 L0,11 L0,2" fill="#323232" stroke="#323232" stroke-width="2"></path></marker><marker id="SvgjsMarker2577" markerWidth="16" markerHeight="12" refX="16" refY="6" viewBox="0 0 16 12" orient="auto" markerUnits="userSpaceOnUse" stroke-dasharray="0,0"><path id="SvgjsPath2578" d="M0,2 L14,6 L0,11 L0,2" fill="#323232" stroke="#323232" stroke-width="2"></path></marker><marker id="SvgjsMarker2581" markerWidth="16" markerHeight="12" refX="16" refY="6" viewBox="0 0 16 12" orient="auto" markerUnits="userSpaceOnUse" stroke-dasharray="0,0"><path id="SvgjsPath2582" d="M0,2 L14,6 L0,11 L0,2" fill="#323232" stroke="#323232" stroke-width="2"></path></marker><marker id="SvgjsMarker2591" markerWidth="16" markerHeight="12" refX="16" refY="6" viewBox="0 0 16 12" orient="auto" markerUnits="userSpaceOnUse" stroke-dasharray="0,0"><path id="SvgjsPath2592" d="M0,2 L14,6 L0,11 L0,2" fill="#323232" stroke="#323232" stroke-width="2"></path></marker><marker id="SvgjsMarker2609" markerWidth="16" markerHeight="12" refX="16" refY="6" viewBox="0 0 16 12" orient="auto" markerUnits="userSpaceOnUse" stroke-dasharray="0,0"><path id="SvgjsPath2610" d="M0,2 L14,6 L0,11 L0,2" fill="#323232" stroke="#323232" stroke-width="2"></path></marker><marker id="SvgjsMarker2613" markerWidth="16" markerHeight="12" refX="16" refY="6" viewBox="0 0 16 12" orient="auto" markerUnits="userSpaceOnUse" stroke-dasharray="0,0"><path id="SvgjsPath2614" d="M0,2 L14,6 L0,11 L0,2" fill="#323232" stroke="#323232" stroke-width="2"></path></marker><marker id="SvgjsMarker2617" markerWidth="16" markerHeight="12" refX="16" refY="6" viewBox="0 0 16 12" orient="auto" markerUnits="userSpaceOnUse" stroke-dasharray="0,0"><path id="SvgjsPath2618" d="M0,2 L14,6 L0,11 L0,2" fill="#323232" stroke="#323232" stroke-width="2"></path></marker><marker id="SvgjsMarker2621" markerWidth="16" markerHeight="12" refX="16" refY="6" viewBox="0 0 16 12" orient="auto" markerUnits="userSpaceOnUse" stroke-dasharray="0,0"><path id="SvgjsPath2622" d="M0,2 L14,6 L0,11 L0,2" fill="#323232" stroke="#323232" stroke-width="2"></path></marker><marker id="SvgjsMarker2625" markerWidth="16" markerHeight="12" refX="16" refY="6" viewBox="0 0 16 12" orient="auto" markerUnits="userSpaceOnUse" stroke-dasharray="0,0"><path id="SvgjsPath2626" d="M0,2 L14,6 L0,11 L0,2" fill="#323232" stroke="#323232" stroke-width="2"></path></marker></defs><g id="SvgjsG2361" transform="translate(830,117)"><path id="SvgjsPath2362" d="M 0 0L 226 0L 226 57L 0 57Z" stroke="rgba(50,50,50,1)" stroke-width="2" fill-opacity="1" fill="#ffffff"></path><g id="SvgjsG2363"><text id="SvgjsText2364" font-family="微软雅黑" text-anchor="middle" font-size="13px" width="206px" fill="#323232" font-weight="400" align="middle" anchor="middle" family="微软雅黑" size="13px" weight="400" font-style="" opacity="1" y="10.55" transform="rotate(0)"><tspan id="SvgjsTspan2365" dy="16" x="113"><tspan id="SvgjsTspan2366" style="text-decoration:;">Clean up the old one and Re-</tspan></tspan><tspan id="SvgjsTspan2367" dy="16" x="113"><tspan id="SvgjsTspan2368" style="text-decoration:;">generate the CA pair</tspan></tspan></text></g></g><g id="SvgjsG2369" transform="translate(127,25)"><path id="SvgjsPath2370" d="M 16.666666666666668 0L 83.33333333333333 0C 105.55555555555556 0 105.55555555555556 50 83.33333333333333 50L 16.666666666666668 50C -5.555555555555556 50 -5.555555555555556 0 16.666666666666668 0Z" stroke="rgba(50,50,50,1)" stroke-width="2" fill-opacity="1" fill="#ffffff"></path><g id="SvgjsG2371"><text id="SvgjsText2372" font-family="微软雅黑" text-anchor="middle" font-size="13px" width="80px" fill="#323232" font-weight="400" align="middle" anchor="middle" family="微软雅黑" size="13px" weight="400" font-style="" opacity="1" y="15.05" transform="rotate(0)"><tspan id="SvgjsTspan2373" dy="16" x="50"><tspan id="SvgjsTspan2374" style="text-decoration:;">Start</tspan></tspan></text></g></g><g id="SvgjsG2375"><path id="SvgjsPath2376" d="M177 75L177 95L177 95L177 115" stroke="#323232" stroke-width="2" fill="none" marker-end="url(#SvgjsMarker2377)"></path></g><g id="SvgjsG2379" transform="translate(25,115)"><path id="SvgjsPath2380" d="M 0 30.5L 152 0L 304 30.5L 152 61L 0 30.5Z" stroke="rgba(50,50,50,1)" stroke-width="2" fill-opacity="1" fill="#ffffff"></path><g id="SvgjsG2381"><text id="SvgjsText2382" font-family="微软雅黑" text-anchor="middle" font-size="13px" width="284px" fill="#323232" font-weight="400" align="middle" anchor="middle" family="微软雅黑" size="13px" weight="400" font-style="" opacity="1" y="20.55" transform="rotate(0)"><tspan id="SvgjsTspan2383" dy="16" x="152"><tspan id="SvgjsTspan2384" style="text-decoration:;">Whether there is CA pair existing</tspan></tspan></text></g></g><g id="SvgjsG2385"><path id="SvgjsPath2386" d="M329 145.5L366.5 145.5L366.5 145.5L404 145.5" stroke="#323232" stroke-width="2" fill="none" marker-end="url(#SvgjsMarker2387)"></path><rect id="SvgjsRect2389" width="21" height="16" x="356" y="137.5" fill="#ffffff"></rect><text id="SvgjsText2390" font-family="微软雅黑" text-anchor="middle" font-size="13px" width="21px" fill="#323232" font-weight="400" align="top" anchor="middle" family="微软雅黑" size="13px" weight="400" font-style="" opacity="1" y="135.55" transform="rotate(0)"><tspan id="SvgjsTspan2391" dy="16" x="366.5"><tspan id="SvgjsTspan2392" style="text-decoration:;">Yes</tspan></tspan></text></g><g id="SvgjsG2393" transform="translate(404,115)"><path id="SvgjsPath2394" d="M 0 30.5L 170.5 0L 341 30.5L 170.5 61L 0 30.5Z" stroke="rgba(50,50,50,1)" stroke-width="2" fill-opacity="1" fill="#ffffff"></path><g id="SvgjsG2395"><text id="SvgjsText2396" font-family="微软雅黑" text-anchor="middle" font-size="13px" width="321px" fill="#323232" font-weight="400" align="middle" anchor="middle" family="微软雅黑" size="13px" weight="400" font-style="" opacity="1" y="20.55" transform="rotate(0)"><tspan id="SvgjsTspan2397" dy="16" x="170.5"><tspan id="SvgjsTspan2398" style="text-decoration:;">Whether needs to re-generate the CA pair</tspan></tspan></text></g></g><g id="SvgjsG2399"><path id="SvgjsPath2400" d="M745 145.5L787.5 145.5L787.5 145.5L830 145.5" stroke="#323232" stroke-width="2" fill="none" marker-end="url(#SvgjsMarker2401)"></path><rect id="SvgjsRect2403" width="21" height="16" x="777" y="137.5" fill="#ffffff"></rect><text id="SvgjsText2404" font-family="微软雅黑" text-anchor="middle" font-size="13px" width="21px" fill="#323232" font-weight="400" align="top" anchor="middle" family="微软雅黑" size="13px" weight="400" font-style="" opacity="1" y="135.55" transform="rotate(0)"><tspan id="SvgjsTspan2405" dy="16" x="787.5"><tspan id="SvgjsTspan2406" style="text-decoration:;">Yes</tspan></tspan></text></g><g id="SvgjsG2407" transform="translate(25,240)"><path id="SvgjsPath2408" d="M 0 34.5L 152 0L 304 34.5L 152 69L 0 34.5Z" stroke="rgba(50,50,50,1)" stroke-width="2" fill-opacity="1" fill="#ffffff"></path><g id="SvgjsG2409"><text id="SvgjsText2410" font-family="微软雅黑" text-anchor="middle" font-size="12px" width="284px" fill="#323232" font-weight="400" align="middle" anchor="middle" family="微软雅黑" size="12px" weight="400" font-style="" opacity="1" y="17.7" transform="rotate(0)"><tspan id="SvgjsTspan2411" dy="15" x="152"><tspan id="SvgjsTspan2412" style="text-decoration:;">Whether needs to upload the tar to the blob </tspan></tspan><tspan id="SvgjsTspan2413" dy="15" x="152"><tspan id="SvgjsTspan2414" style="text-decoration:;">storage</tspan></tspan></text></g></g><g id="SvgjsG2415"><path id="SvgjsPath2416" d="M574.5 176L574.5 208L177 208L177 240" stroke="#323232" stroke-width="2" fill="none" marker-end="url(#SvgjsMarker2417)"></path></g><g id="SvgjsG2419"><path id="SvgjsPath2420" d="M943 174L943 207L177 207L177 240" stroke="#323232" stroke-width="2" fill="none" marker-end="url(#SvgjsMarker2421)"></path></g><g id="SvgjsG2423"><path id="SvgjsPath2424" d="M177 176L177 208L177 208L177 240" stroke="#323232" stroke-width="2" fill="none" marker-end="url(#SvgjsMarker2425)"></path><rect id="SvgjsRect2427" width="19" height="16" x="167.5" y="200" fill="#ffffff"></rect><text id="SvgjsText2428" font-family="微软雅黑" text-anchor="middle" font-size="13px" width="19px" fill="#323232" font-weight="400" align="top" anchor="middle" family="微软雅黑" size="13px" weight="400" font-style="" opacity="1" y="198.05" transform="rotate(0)"><tspan id="SvgjsTspan2429" dy="16" x="177"><tspan id="SvgjsTspan2430" style="text-decoration:;">No</tspan></tspan></text></g><g id="SvgjsG2431" transform="translate(411,250)"><path id="SvgjsPath2432" d="M 0 0L 327 0L 327 49L 0 49Z" stroke="rgba(50,50,50,1)" stroke-width="2" fill-opacity="1" fill="#ffffff"></path><g id="SvgjsG2433"><text id="SvgjsText2434" font-family="微软雅黑" text-anchor="middle" font-size="13px" width="307px" fill="#323232" font-weight="400" align="middle" anchor="middle" family="微软雅黑" size="13px" weight="400" font-style="" opacity="1" y="14.55" transform="rotate(0)"><tspan id="SvgjsTspan2435" dy="16" x="163.5"><tspan id="SvgjsTspan2436" style="text-decoration:;">Upload the tar to the blob storage</tspan></tspan></text></g></g><g id="SvgjsG2437"><path id="SvgjsPath2438" d="M329 274.5L370 274.5L370 274.5L411 274.5" stroke="#323232" stroke-width="2" fill="none" marker-end="url(#SvgjsMarker2439)"></path><rect id="SvgjsRect2441" width="21" height="16" x="359.5" y="266.5" fill="#ffffff"></rect><text id="SvgjsText2442" font-family="微软雅黑" text-anchor="middle" font-size="13px" width="21px" fill="#323232" font-weight="400" align="top" anchor="middle" family="微软雅黑" size="13px" weight="400" font-style="" opacity="1" y="264.55" transform="rotate(0)"><tspan id="SvgjsTspan2443" dy="16" x="370"><tspan id="SvgjsTspan2444" style="text-decoration:;">Yes</tspan></tspan></text></g><g id="SvgjsG2445" transform="translate(25,348)"><path id="SvgjsPath2446" d="M 0 0L 304 0L 304 57L 0 57Z" stroke="rgba(50,50,50,1)" stroke-width="2" fill-opacity="1" fill="#ffffff"></path><g id="SvgjsG2447"><text id="SvgjsText2448" font-family="微软雅黑" text-anchor="middle" font-size="13px" width="284px" fill="#323232" font-weight="400" align="middle" anchor="middle" family="微软雅黑" size="13px" weight="400" font-style="" opacity="1" y="18.55" transform="rotate(0)"><tspan id="SvgjsTspan2449" dy="16" x="152"><tspan id="SvgjsTspan2450" style="text-decoration:;">Input the token</tspan></tspan></text></g></g><g id="SvgjsG2451"><path id="SvgjsPath2452" d="M177 309L177 328.5L177 328.5L177 348" stroke="#323232" stroke-width="2" fill="none" marker-end="url(#SvgjsMarker2453)"></path></g><g id="SvgjsG2455" transform="translate(25,440)"><path id="SvgjsPath2456" d="M 0 0L 304 0L 304 57L 0 57Z" stroke="rgba(50,50,50,1)" stroke-width="2" fill-opacity="1" fill="#ffffff"></path><g id="SvgjsG2457"><text id="SvgjsText2458" font-family="微软雅黑" text-anchor="middle" font-size="13px" width="284px" fill="#323232" font-weight="400" align="middle" anchor="middle" family="微软雅黑" size="13px" weight="400" font-style="" opacity="1" y="18.55" transform="rotate(0)"><tspan id="SvgjsTspan2459" dy="16" x="152"><tspan id="SvgjsTspan2460" style="text-decoration:;">Input the apiserver fqdn</tspan></tspan></text></g></g><g id="SvgjsG2461"><path id="SvgjsPath2462" d="M177 405L177 422.5L177 422.5L177 440" stroke="#323232" stroke-width="2" fill="none" marker-end="url(#SvgjsMarker2463)"></path></g><g id="SvgjsG2465" transform="translate(25,528)"><path id="SvgjsPath2466" d="M 0 29.5L 152 0L 304 29.5L 152 59L 0 29.5Z" stroke="rgba(50,50,50,1)" stroke-width="2" fill-opacity="1" fill="#ffffff"></path><g id="SvgjsG2467"><text id="SvgjsText2468" font-family="微软雅黑" text-anchor="middle" font-size="13px" width="284px" fill="#323232" font-weight="400" align="middle" anchor="middle" family="微软雅黑" size="13px" weight="400" font-style="" opacity="1" y="19.55" transform="rotate(0)"><tspan id="SvgjsTspan2469" dy="16" x="152"><tspan id="SvgjsTspan2470" style="text-decoration:;">Whether needss to provision master/agent</tspan></tspan></text></g></g><g id="SvgjsG2471"><path id="SvgjsPath2472" d="M177 497L177 512.5L177 512.5L177 528" stroke="#323232" stroke-width="2" fill="none" marker-end="url(#SvgjsMarker2473)"></path></g><g id="SvgjsG2475" transform="translate(27,651)"><path id="SvgjsPath2476" d="M 0 0L 135 0L 135 46L 0 46Z" stroke="rgba(50,50,50,1)" stroke-width="2" fill-opacity="1" fill="#ffffff"></path><g id="SvgjsG2477"><text id="SvgjsText2478" font-family="微软雅黑" text-anchor="middle" font-size="13px" width="115px" fill="#323232" font-weight="400" align="middle" anchor="middle" family="微软雅黑" size="13px" weight="400" font-style="" opacity="1" y="13.05" transform="rotate(0)"><tspan id="SvgjsTspan2479" dy="16" x="67.5"><tspan id="SvgjsTspan2480" style="text-decoration:;">Install Containerd</tspan></tspan></text></g></g><g id="SvgjsG2481"><path id="SvgjsPath2482" d="M177 587L177 619L94.5 619L94.5 651" stroke="#323232" stroke-width="2" fill="none" marker-end="url(#SvgjsMarker2483)"></path><rect id="SvgjsRect2485" width="38" height="16" x="116.75" y="611" fill="#ffffff"></rect><text id="SvgjsText2486" font-family="微软雅黑" text-anchor="middle" font-size="13px" width="38px" fill="#323232" font-weight="400" align="top" anchor="middle" family="微软雅黑" size="13px" weight="400" font-style="" opacity="1" y="609.05" transform="rotate(0)"><tspan id="SvgjsTspan2487" dy="16" x="135.75"><tspan id="SvgjsTspan2488" style="text-decoration:;">Agent</tspan></tspan></text></g><g id="SvgjsG2489" transform="translate(436,639)"><path id="SvgjsPath2490" d="M 0 35L 45 0L 90 35L 45 70L 0 35Z" stroke="rgba(50,50,50,1)" stroke-width="2" fill-opacity="1" fill="#ffffff"></path><g id="SvgjsG2491"><text id="SvgjsText2492" font-family="微软雅黑" text-anchor="middle" font-size="13px" width="70px" fill="#323232" font-weight="400" align="middle" anchor="middle" family="微软雅黑" size="13px" weight="400" font-style="" opacity="1" y="25.05" transform="rotate(0)"><tspan id="SvgjsTspan2493" dy="16" x="45"><tspan id="SvgjsTspan2494" style="text-decoration:;">Master</tspan></tspan></text></g></g><g id="SvgjsG2495"><path id="SvgjsPath2496" d="M177 587L177 619L481 619L481 639" stroke="#323232" stroke-width="2" fill="none" marker-end="url(#SvgjsMarker2497)"></path><rect id="SvgjsRect2499" width="43" height="16" x="301.5" y="611" fill="#ffffff"></rect><text id="SvgjsText2500" font-family="微软雅黑" text-anchor="middle" font-size="13px" width="43px" fill="#323232" font-weight="400" align="top" anchor="middle" family="微软雅黑" size="13px" weight="400" font-style="" opacity="1" y="609.05" transform="rotate(0)"><tspan id="SvgjsTspan2501" dy="16" x="323"><tspan id="SvgjsTspan2502" style="text-decoration:;">Master</tspan></tspan></text></g><g id="SvgjsG2503"><path id="SvgjsPath2504" d="M436 674L382.5 674L382.5 674L329 674" stroke="#323232" stroke-width="2" fill="none" marker-end="url(#SvgjsMarker2505)"></path><rect id="SvgjsRect2507" width="51" height="16" x="357" y="666" fill="#ffffff"></rect><text id="SvgjsText2508" font-family="微软雅黑" text-anchor="middle" font-size="13px" width="51px" fill="#323232" font-weight="400" align="top" anchor="middle" family="微软雅黑" size="13px" weight="400" font-style="" opacity="1" y="664.05" transform="rotate(0)"><tspan id="SvgjsTspan2509" dy="16" x="382.5"><tspan id="SvgjsTspan2510" style="text-decoration:;">Non-1st</tspan></tspan></text></g><g id="SvgjsG2511"><path id="SvgjsPath2512" d="M526 674L571.5 674L571.5 674L617 674" stroke="#323232" stroke-width="2" fill="none" marker-end="url(#SvgjsMarker2513)"></path><rect id="SvgjsRect2515" width="19" height="16" x="562" y="666" fill="#ffffff"></rect><text id="SvgjsText2516" font-family="微软雅黑" text-anchor="middle" font-size="13px" width="19px" fill="#323232" font-weight="400" align="top" anchor="middle" family="微软雅黑" size="13px" weight="400" font-style="" opacity="1" y="664.05" transform="rotate(0)"><tspan id="SvgjsTspan2517" dy="16" x="571.5"><tspan id="SvgjsTspan2518" style="text-decoration:;">1st</tspan></tspan></text></g><g id="SvgjsG2519"><path id="SvgjsPath2520" d="M574.5 299L574.5 323.5L177 323.5L177 348" stroke="#323232" stroke-width="2" fill="none" marker-end="url(#SvgjsMarker2521)"></path></g><g id="SvgjsG2523" transform="translate(127,869)"><path id="SvgjsPath2524" d="M 16.666666666666668 0L 83.33333333333333 0C 105.55555555555556 0 105.55555555555556 50 83.33333333333333 50L 16.666666666666668 50C -5.555555555555556 50 -5.555555555555556 0 16.666666666666668 0Z" stroke="rgba(50,50,50,1)" stroke-width="2" fill-opacity="1" fill="#ffffff"></path><g id="SvgjsG2525"><text id="SvgjsText2526" font-family="微软雅黑" text-anchor="middle" font-size="13px" width="80px" fill="#323232" font-weight="400" align="middle" anchor="middle" family="微软雅黑" size="13px" weight="400" font-style="" opacity="1" y="15.05" transform="rotate(0)"><tspan id="SvgjsTspan2527" dy="16" x="50"><tspan id="SvgjsTspan2528" style="text-decoration:;">End</tspan></tspan></text></g></g><g id="SvgjsG2529" transform="translate(27,729)"><path id="SvgjsPath2530" d="M 0 0L 135 0L 135 46L 0 46Z" stroke="rgba(50,50,50,1)" stroke-width="2" fill-opacity="1" fill="#ffffff"></path><g id="SvgjsG2531"><text id="SvgjsText2532" font-family="微软雅黑" text-anchor="middle" font-size="13px" width="115px" fill="#323232" font-weight="400" align="middle" anchor="middle" family="微软雅黑" size="13px" weight="400" font-style="" opacity="1" y="-2.95" transform="rotate(0)"><tspan id="SvgjsTspan2533" dy="16" x="67.5"><tspan id="SvgjsTspan2534" style="text-decoration:;">Install </tspan></tspan><tspan id="SvgjsTspan2535" dy="16" x="67.5"><tspan id="SvgjsTspan2536" style="text-decoration:;">kubeadm/kubelet</tspan></tspan><tspan id="SvgjsTspan2537" dy="16" x="67.5"><tspan id="SvgjsTspan2538" style="text-decoration:;">/kubectl</tspan></tspan></text></g></g><g id="SvgjsG2539"><path id="SvgjsPath2540" d="M94.5 697L94.5 713L94.5 713L94.5 729" stroke="#323232" stroke-width="2" fill="none" marker-end="url(#SvgjsMarker2541)"></path></g><g id="SvgjsG2543" transform="translate(194,652)"><path id="SvgjsPath2544" d="M 0 0L 135 0L 135 46L 0 46Z" stroke="rgba(50,50,50,1)" stroke-width="2" fill-opacity="1" fill="#ffffff"></path><g id="SvgjsG2545"><text id="SvgjsText2546" font-family="微软雅黑" text-anchor="middle" font-size="13px" width="115px" fill="#323232" font-weight="400" align="middle" anchor="middle" family="微软雅黑" size="13px" weight="400" font-style="" opacity="1" y="13.05" transform="rotate(0)"><tspan id="SvgjsTspan2547" dy="16" x="67.5"><tspan id="SvgjsTspan2548" style="text-decoration:;">Install Containerd</tspan></tspan></text></g></g><g id="SvgjsG2549" transform="translate(616,652)"><path id="SvgjsPath2550" d="M 0 0L 135 0L 135 46L 0 46Z" stroke="rgba(50,50,50,1)" stroke-width="2" fill-opacity="1" fill="#ffffff"></path><g id="SvgjsG2551"><text id="SvgjsText2552" font-family="微软雅黑" text-anchor="middle" font-size="13px" width="115px" fill="#323232" font-weight="400" align="middle" anchor="middle" family="微软雅黑" size="13px" weight="400" font-style="" opacity="1" y="13.05" transform="rotate(0)"><tspan id="SvgjsTspan2553" dy="16" x="67.5"><tspan id="SvgjsTspan2554" style="text-decoration:;">Install Containerd</tspan></tspan></text></g></g><g id="SvgjsG2555" transform="translate(194,729)"><path id="SvgjsPath2556" d="M 0 0L 135 0L 135 46L 0 46Z" stroke="rgba(50,50,50,1)" stroke-width="2" fill-opacity="1" fill="#ffffff"></path><g id="SvgjsG2557"><text id="SvgjsText2558" font-family="微软雅黑" text-anchor="middle" font-size="13px" width="115px" fill="#323232" font-weight="400" align="middle" anchor="middle" family="微软雅黑" size="13px" weight="400" font-style="" opacity="1" y="-2.95" transform="rotate(0)"><tspan id="SvgjsTspan2559" dy="16" x="67.5"><tspan id="SvgjsTspan2560" style="text-decoration:;">Install </tspan></tspan><tspan id="SvgjsTspan2561" dy="16" x="67.5"><tspan id="SvgjsTspan2562" style="text-decoration:;">kubeadm/kubelet</tspan></tspan><tspan id="SvgjsTspan2563" dy="16" x="67.5"><tspan id="SvgjsTspan2564" style="text-decoration:;">/kubectl</tspan></tspan></text></g></g><g id="SvgjsG2565" transform="translate(616,729)"><path id="SvgjsPath2566" d="M 0 0L 135 0L 135 46L 0 46Z" stroke="rgba(50,50,50,1)" stroke-width="2" fill-opacity="1" fill="#ffffff"></path><g id="SvgjsG2567"><text id="SvgjsText2568" font-family="微软雅黑" text-anchor="middle" font-size="13px" width="115px" fill="#323232" font-weight="400" align="middle" anchor="middle" family="微软雅黑" size="13px" weight="400" font-style="" opacity="1" y="-2.95" transform="rotate(0)"><tspan id="SvgjsTspan2569" dy="16" x="67.5"><tspan id="SvgjsTspan2570" style="text-decoration:;">Install </tspan></tspan><tspan id="SvgjsTspan2571" dy="16" x="67.5"><tspan id="SvgjsTspan2572" style="text-decoration:;">kubeadm/kubelet</tspan></tspan><tspan id="SvgjsTspan2573" dy="16" x="67.5"><tspan id="SvgjsTspan2574" style="text-decoration:;">/kubectl</tspan></tspan></text></g></g><g id="SvgjsG2575"><path id="SvgjsPath2576" d="M261.5 698L261.5 713.5L261.5 713.5L261.5 729" stroke="#323232" stroke-width="2" fill="none" marker-end="url(#SvgjsMarker2577)"></path></g><g id="SvgjsG2579"><path id="SvgjsPath2580" d="M683.5 698L683.5 713.5L683.5 713.5L683.5 729" stroke="#323232" stroke-width="2" fill="none" marker-end="url(#SvgjsMarker2581)"></path></g><g id="SvgjsG2583" transform="translate(27,800)"><path id="SvgjsPath2584" d="M 0 0L 135 0L 135 46L 0 46Z" stroke="rgba(50,50,50,1)" stroke-width="2" fill-opacity="1" fill="#ffffff"></path><g id="SvgjsG2585"><text id="SvgjsText2586" font-family="微软雅黑" text-anchor="middle" font-size="13px" width="115px" fill="#323232" font-weight="400" align="middle" anchor="middle" family="微软雅黑" size="13px" weight="400" font-style="" opacity="1" y="13.05" transform="rotate(0)"><tspan id="SvgjsTspan2587" dy="16" x="67.5"><tspan id="SvgjsTspan2588" style="text-decoration:;">Kubeadm join</tspan></tspan></text></g></g><g id="SvgjsG2589"><path id="SvgjsPath2590" d="M94.5 775L94.5 787.5L94.5 787.5L94.5 800" stroke="#323232" stroke-width="2" fill="none" marker-end="url(#SvgjsMarker2591)"></path></g><g id="SvgjsG2593" transform="translate(194,800)"><path id="SvgjsPath2594" d="M 0 0L 135 0L 135 46L 0 46Z" stroke="rgba(50,50,50,1)" stroke-width="2" fill-opacity="1" fill="#ffffff"></path><g id="SvgjsG2595"><text id="SvgjsText2596" font-family="微软雅黑" text-anchor="middle" font-size="13px" width="115px" fill="#323232" font-weight="400" align="middle" anchor="middle" family="微软雅黑" size="13px" weight="400" font-style="" opacity="1" y="5.05" transform="rotate(0)"><tspan id="SvgjsTspan2597" dy="16" x="67.5"><tspan id="SvgjsTspan2598" style="text-decoration:;">Kubeadm join --</tspan></tspan><tspan id="SvgjsTspan2599" dy="16" x="67.5"><tspan id="SvgjsTspan2600" style="text-decoration:;">control-plane</tspan></tspan></text></g></g><g id="SvgjsG2601" transform="translate(616,800)"><path id="SvgjsPath2602" d="M 0 0L 135 0L 135 46L 0 46Z" stroke="rgba(50,50,50,1)" stroke-width="2" fill-opacity="1" fill="#ffffff"></path><g id="SvgjsG2603"><text id="SvgjsText2604" font-family="微软雅黑" text-anchor="middle" font-size="13px" width="115px" fill="#323232" font-weight="400" align="middle" anchor="middle" family="微软雅黑" size="13px" weight="400" font-style="" opacity="1" y="13.05" transform="rotate(0)"><tspan id="SvgjsTspan2605" dy="16" x="67.5"><tspan id="SvgjsTspan2606" style="text-decoration:;">Kubeadm init</tspan></tspan></text></g></g><g id="SvgjsG2607"><path id="SvgjsPath2608" d="M683.5 775L683.5 787.5L683.5 787.5L683.5 800" stroke="#323232" stroke-width="2" fill="none" marker-end="url(#SvgjsMarker2609)"></path></g><g id="SvgjsG2611"><path id="SvgjsPath2612" d="M261.5 775L261.5 787.5L261.5 787.5L261.5 800" stroke="#323232" stroke-width="2" fill="none" marker-end="url(#SvgjsMarker2613)"></path></g><g id="SvgjsG2615"><path id="SvgjsPath2616" d="M94.5 846L94.5 894L127 894" stroke="#323232" stroke-width="2" fill="none" marker-end="url(#SvgjsMarker2617)"></path></g><g id="SvgjsG2619"><path id="SvgjsPath2620" d="M261.5 846L261.5 894L227 894" stroke="#323232" stroke-width="2" fill="none" marker-end="url(#SvgjsMarker2621)"></path></g><g id="SvgjsG2623"><path id="SvgjsPath2624" d="M683.5 846L683.5 894L227 894" stroke="#323232" stroke-width="2" fill="none" marker-end="url(#SvgjsMarker2625)"></path></g></svg>